#Comment line ignore any data following # character 
#Hierarchical Translation and Rotation (.htr) file 
[Header]	
#Header keywords are followed by a single value 
FileType HTR		#Single word string
DataType HTRS		#Translation followed by rotation and scale data
FileVersion 1		#integer
NumSegments 64		#integer
NumFrames 2		#integer
DataFrameRate 30		#integer, data frame rate in this file
EulerRotationOrder ZYX
CalibrationUnits mm
RotationUnits Degrees
GlobalAxisofGravity Y
BoneLengthAxis Y
ScaleFactor 1.00
[SegmentNames&Hierarchy]
#CHILD	PARENT
Pinger_Root GLOBAL
Pelvis Pinger_Root
L_Hip Pelvis
R_Hip Pelvis
Rear_Leg01 Pelvis
Spine1 Pelvis
L_Leg01 L_Hip
L_Leg02 L_Leg01
L_Leg03 L_Leg02
L_Foot L_Leg03
L_Toe1_01 L_Foot
L_Toe2_01 L_Foot
L_Toe3_01 L_Foot
planeAlignerLeft L_Foot
L_Toe1_02 L_Toe1_01
L_Toe1_03 L_Toe1_02
L_Toe2_02 L_Toe2_01
L_Toe2_03 L_Toe2_02
L_Toe3_02 L_Toe3_01
L_Toe3_03 L_Toe3_02
planeLockWeightLeft planeAlignerLeft
R_Leg01 R_Hip
R_Leg02 R_Leg01
R_Leg03 R_Leg02
R_Foot R_Leg03
planeAlignerRight R_Foot
R_Toe1_01 R_Foot
R_Toe2_01 R_Foot
R_Toe3_01 R_Foot
planeLockWeightRight planeAlignerRight
R_Toe1_02 R_Toe1_01
R_Toe1_03 R_Toe1_02
R_Toe2_02 R_Toe2_01
R_Toe2_03 R_Toe2_02
R_Toe3_02 R_Toe3_01
R_Toe3_03 R_Toe3_02
Rear_Leg02 Rear_Leg01
Rear_Leg03 Rear_Leg02
Rear_Leg04 Rear_Leg03
Rear_Foot Rear_Leg04
planeAlignerCenter Rear_Foot
Rear_Toe1_01 Rear_Foot
Rear_Toe2_01 Rear_Foot
Rear_Toe3_01 Rear_Foot
planeLockWeightCenter planeAlignerCenter
Rear_Toe1_02 Rear_Toe1_01
Rear_Toe1_03 Rear_Toe1_02
Rear_Toe2_02 Rear_Toe2_01
Rear_Toe2_03 Rear_Toe2_02
Rear_Toe3_02 Rear_Toe3_01
Rear_Toe3_03 Rear_Toe3_02
Back_Bone Spine1
Head Spine1
Motor_Bone Back_Bone
Ping_Mechanism Back_Bone
BN_LookIK Head
bottomMouth Head
L_Mouth01 Head
L_mouthFront Head
mouthGun Head
R_Mouth01 Head
R_mouthFront Head
TopMouth Head
weapon_bone Head
[BasePosition]
#SegmentName Tx, Ty, Tz, Rx, Ry, Rz, BoneLength
Pinger_Root 0.000000 0.000000 0.000000 -90.000000 0.000000 0.000000 10.000000 
Pelvis 0.000000 0.000000 0.000000 0.000000 0.000000 0.000000 10.000000 
L_Hip 0.000000 0.000000 0.000000 0.000000 0.000000 0.000000 10.000000 
R_Hip 0.000000 0.000000 0.000000 0.000000 0.000000 0.000000 10.000000 
Rear_Leg01 0.000000 0.000000 0.000000 0.000000 0.000000 0.000000 10.000000 
Spine1 0.000000 0.000000 0.000000 0.000000 0.000000 0.000000 10.000000 
L_Leg01 0.000000 0.000000 0.000000 0.000000 0.000000 0.000000 10.000000 
L_Leg02 0.000000 0.000000 0.000000 0.000000 0.000000 0.000000 10.000000 
L_Leg03 0.000000 0.000000 0.000000 0.000000 0.000000 0.000000 10.000000 
L_Foot 0.000000 0.000000 0.000000 0.000000 0.000000 0.000000 10.000000 
L_Toe1_01 0.000000 0.000000 0.000000 0.000000 0.000000 0.000000 10.000000 
L_Toe2_01 0.000000 0.000000 0.000000 0.000000 0.000000 0.000000 10.000000 
L_Toe3_01 0.000000 0.000000 0.000000 0.000000 0.000000 0.000000 10.000000 
planeAlignerLeft 0.000000 0.000000 0.000000 0.000000 0.000000 0.000000 10.000000 
L_Toe1_02 0.000000 0.000000 0.000000 0.000000 0.000000 0.000000 10.000000 
L_Toe1_03 0.000000 0.000000 0.000000 0.000000 0.000000 0.000000 10.000000 
L_Toe2_02 0.000000 0.000000 0.000000 0.000000 0.000000 0.000000 10.000000 
L_Toe2_03 0.000000 0.000000 0.000000 0.000000 0.000000 0.000000 10.000000 
L_Toe3_02 0.000000 0.000000 0.000000 0.000000 0.000000 0.000000 10.000000 
L_Toe3_03 0.000000 0.000000 0.000000 0.000000 0.000000 0.000000 10.000000 
planeLockWeightLeft 0.000000 0.000000 0.000000 0.000000 0.000000 0.000000 10.000000 
R_Leg01 0.000000 0.000000 0.000000 0.000000 0.000000 0.000000 10.000000 
R_Leg02 0.000000 0.000000 0.000000 0.000000 0.000000 0.000000 10.000000 
R_Leg03 0.000000 0.000000 0.000000 0.000000 0.000000 0.000000 10.000000 
R_Foot 0.000000 0.000000 0.000000 0.000000 0.000000 0.000000 10.000000 
planeAlignerRight 0.000000 0.000000 0.000000 0.000000 0.000000 0.000000 10.000000 
R_Toe1_01 0.000000 0.000000 0.000000 0.000000 0.000000 0.000000 10.000000 
R_Toe2_01 0.000000 0.000000 0.000000 0.000000 0.000000 0.000000 10.000000 
R_Toe3_01 0.000000 0.000000 0.000000 0.000000 0.000000 0.000000 10.000000 
planeLockWeightRight 0.000000 0.000000 0.000000 0.000000 0.000000 0.000000 10.000000 
R_Toe1_02 0.000000 0.000000 0.000000 0.000000 0.000000 0.000000 10.000000 
R_Toe1_03 0.000000 0.000000 0.000000 0.000000 0.000000 0.000000 10.000000 
R_Toe2_02 0.000000 0.000000 0.000000 0.000000 0.000000 0.000000 10.000000 
R_Toe2_03 0.000000 0.000000 0.000000 0.000000 0.000000 0.000000 10.000000 
R_Toe3_02 0.000000 0.000000 0.000000 0.000000 0.000000 0.000000 10.000000 
R_Toe3_03 0.000000 0.000000 0.000000 0.000000 0.000000 0.000000 10.000000 
Rear_Leg02 0.000000 0.000000 0.000000 0.000000 0.000000 0.000000 10.000000 
Rear_Leg03 0.000000 0.000000 0.000000 0.000000 0.000000 0.000000 10.000000 
Rear_Leg04 0.000000 0.000000 0.000000 0.000000 0.000000 0.000000 10.000000 
Rear_Foot 0.000000 0.000000 0.000000 0.000000 0.000000 0.000000 10.000000 
planeAlignerCenter 0.000000 0.000000 0.000000 0.000000 0.000000 0.000000 10.000000 
Rear_Toe1_01 0.000000 0.000000 0.000000 0.000000 0.000000 0.000000 10.000000 
Rear_Toe2_01 0.000000 0.000000 0.000000 0.000000 0.000000 0.000000 10.000000 
Rear_Toe3_01 0.000000 0.000000 0.000000 0.000000 0.000000 0.000000 10.000000 
planeLockWeightCenter 0.000000 0.000000 0.000000 0.000000 0.000000 0.000000 10.000000 
Rear_Toe1_02 0.000000 0.000000 0.000000 0.000000 0.000000 0.000000 10.000000 
Rear_Toe1_03 0.000000 0.000000 0.000000 0.000000 0.000000 0.000000 10.000000 
Rear_Toe2_02 0.000000 0.000000 0.000000 0.000000 0.000000 0.000000 10.000000 
Rear_Toe2_03 0.000000 0.000000 0.000000 0.000000 0.000000 0.000000 10.000000 
Rear_Toe3_02 0.000000 0.000000 0.000000 0.000000 0.000000 0.000000 10.000000 
Rear_Toe3_03 0.000000 0.000000 0.000000 0.000000 0.000000 0.000000 10.000000 
Back_Bone 0.000000 0.000000 0.000000 0.000000 0.000000 0.000000 10.000000 
Head 0.000000 0.000000 0.000000 0.000000 0.000000 0.000000 10.000000 
Motor_Bone 0.000000 0.000000 0.000000 0.000000 0.000000 0.000000 10.000000 
Ping_Mechanism 0.000000 0.000000 0.000000 0.000000 0.000000 0.000000 10.000000 
BN_LookIK 0.000000 0.000000 0.000000 0.000000 0.000000 0.000000 10.000000 
bottomMouth 0.000000 0.000000 0.000000 0.000000 0.000000 0.000000 10.000000 
L_Mouth01 0.000000 0.000000 0.000000 0.000000 0.000000 0.000000 10.000000 
L_mouthFront 0.000000 0.000000 0.000000 0.000000 0.000000 0.000000 10.000000 
mouthGun 0.000000 0.000000 0.000000 0.000000 0.000000 0.000000 10.000000 
R_Mouth01 0.000000 0.000000 0.000000 0.000000 0.000000 0.000000 10.000000 
R_mouthFront 0.000000 0.000000 0.000000 0.000000 0.000000 0.000000 10.000000 
TopMouth 0.000000 0.000000 0.000000 0.000000 0.000000 0.000000 10.000000 
weapon_bone 0.000000 0.000000 0.000000 0.000000 0.000000 0.000000 10.000000 
#Beginning of Data. Separated by tabs
#Fr	Tx	Ty	Tz	Rx	Ry	Rz	SF
[Pinger_Root]
9 0.000000 0.000000 0.000000 -0.000075 -0.000000 -0.000020 0.000000
10 0.000000 0.000000 0.000000 -0.000075 -0.000000 -0.000020 0.000000
[Pelvis]
9 152.813248 995.640198 4665.625977 -54.034023 -85.180573 51.792564 4773.124512
10 220.466202 984.776917 4657.262695 -57.054379 -88.707443 55.867531 4765.342285
[L_Hip]
9 5.766392 125.831482 872.656799 160.001236 -58.370327 116.329842 881.701050
10 5.766392 125.831482 872.656799 160.361404 -61.083023 114.956413 881.701050
[R_Hip]
9 5.765438 125.836372 -872.654907 35.888206 61.643661 122.850159 881.699829
10 5.765438 125.836372 -872.654907 35.030926 63.972179 121.970543 881.699829
[Rear_Leg01]
9 -192.298416 -925.602966 -0.001907 -165.503952 1.308023 -169.475586 945.367432
10 -192.298416 -925.602966 -0.001907 -165.132050 -3.145059 -163.188660 945.367432
[Spine1]
9 290.604584 5.007505 0.000477 1.253102 -2.379797 17.967693 290.647736
10 290.604584 5.007505 0.000477 1.028328 -0.103645 20.476706 290.647736
[L_Leg01]
9 761.932007 -0.002384 -0.069261 37.476196 -27.372330 -36.642483 761.932068
10 761.932007 -0.002384 -0.069261 43.908577 -25.113327 -40.880398 761.932068
[L_Leg02]
9 1441.140503 -0.000954 -0.000715 -0.896434 0.231597 -105.567284 1441.140503
10 1441.140503 -0.000954 -0.000715 -0.544807 0.114621 -105.381409 1441.140503
[L_Leg03]
9 1686.963989 -0.000715 -0.000954 0.007223 -0.002926 108.173164 1686.963989
10 1686.963989 -0.000715 -0.000954 -0.004571 0.000835 110.701454 1686.963989
[L_Foot]
9 3041.570068 -30.715107 11.297464 1.318380 14.293363 52.586315 3041.746094
10 3041.570068 -30.715107 11.297464 -0.910540 14.255396 49.914978 3041.746094
[L_Toe1_01]
9 -188.216690 -224.732346 -21.137953 96.939987 -10.387953 -179.599686 293.899567
10 -188.216690 -224.732346 -21.137953 96.484375 -10.713913 -177.722427 293.899567
[L_Toe2_01]
9 200.746536 -219.926590 148.838394 -87.746803 -28.123505 -48.817314 332.896027
10 200.746536 -219.926590 148.838394 -86.448471 -25.448801 -49.079422 332.896027
[L_Toe3_01]
9 188.832520 -219.859131 -191.078659 -102.240425 9.691912 -58.233852 347.140900
10 188.832520 -219.859131 -191.078659 -102.822021 8.834152 -59.850742 347.140900
[planeAlignerLeft]
9 123.071533 -532.841797 171.019745 169.253616 -77.725754 91.110870 572.987549
10 182.152039 -588.487427 168.141632 169.220261 -79.259315 92.315361 638.567505
[L_Toe1_02]
9 413.761139 0.000477 0.000000 0.001395 -24.507160 0.001395 413.761139
10 413.761139 0.000477 0.000000 0.001407 -23.031836 0.001407 413.761139
[L_Toe1_03]
9 464.317322 0.000358 -0.000089 0.007169 71.154633 0.007169 464.317322
10 464.317322 0.000358 -0.000089 0.011596 78.382187 0.011596 464.317322
[L_Toe2_02]
9 342.235809 -0.000477 0.000238 -0.000590 -65.576485 -0.000590 342.235809
10 342.235809 -0.000477 0.000238 -0.002430 -55.899258 -0.002430 342.235809
[L_Toe2_03]
9 420.210846 -0.000715 0.000000 -0.001670 70.784164 -0.005217 420.210846
10 420.210846 -0.000715 0.000000 -0.000078 54.997890 -0.003744 420.210846
[L_Toe3_02]
9 329.270111 0.000954 0.000000 0.002932 -81.028763 0.002932 329.270111
10 329.270111 0.000954 0.000000 0.001180 -78.084679 0.001180 329.270111
[L_Toe3_03]
9 439.137451 -0.001907 0.000954 -179.997131 75.714409 -179.993607 439.137451
10 439.137451 -0.001907 0.000954 -179.979980 86.973595 -179.976486 439.137451
[planeLockWeightLeft]
9 -0.001068 0.000000 -0.000296 -0.011826 -0.004376 0.005620 0.001108
10 -0.001068 0.000000 -0.000296 -0.011826 -0.004376 0.005620 0.001108
[R_Leg01]
9 761.455627 -0.001907 -0.000358 99.101440 -31.800234 45.670052 761.455688
10 761.455627 -0.001907 -0.000358 99.161522 -30.818972 53.882809 761.455688
[R_Leg02]
9 1441.140625 0.000000 -0.000238 -1.476377 -0.044796 -136.278137 1441.140625
10 1441.140625 0.000000 -0.000238 -1.137335 0.044335 -129.311417 1441.140625
[R_Leg03]
9 1686.963989 0.000954 0.001431 0.046122 -0.018940 122.567375 1686.963989
10 1686.963989 0.000954 0.001431 0.031876 -0.011823 118.892792 1686.963989
[R_Foot]
9 3041.560059 -30.531288 -11.204481 23.844122 -35.814819 53.546806 3041.734131
10 3041.560059 -30.531288 -11.204481 17.990395 -33.775372 51.523289 3041.734131
[planeAlignerRight]
9 -65.819717 -731.600464 -146.722443 -36.826962 -87.072563 -55.083469 749.065369
10 -53.503735 -703.921326 -112.025635 0.000000 -89.951546 -90.004936 714.784973
[R_Toe1_01]
9 -188.383347 -224.864899 21.052242 90.519463 5.954117 -155.228226 294.101532
10 -188.383347 -224.864899 21.052242 92.892975 7.409187 -155.321396 294.101532
[R_Toe2_01]
9 200.637817 -220.002121 -148.787384 -99.854462 20.094061 -57.692780 332.857574
10 200.637817 -220.002121 -148.787384 -100.346100 19.163908 -53.708378 332.857574
[R_Toe3_01]
9 188.606735 -220.092957 191.126343 -75.221428 -9.022946 -58.236393 347.192566
10 188.606735 -220.092957 191.126343 -76.458809 -9.386847 -51.479591 347.192566
[planeLockWeightRight]
9 499.999512 0.000153 -0.000110 -0.011823 -0.004379 -0.000027 499.999512
10 999.999023 0.000305 -0.000219 -0.011823 -0.004379 -0.000027 999.999023
[R_Toe1_02]
9 413.762085 0.000477 -0.000119 0.001388 -25.454931 0.001388 413.762085
10 413.762085 0.000477 -0.000119 0.001389 -25.343361 0.001389 413.762085
[R_Toe1_03]
9 464.317810 0.000000 0.001088 0.004785 61.601723 0.004785 464.317810
10 464.317810 0.000000 0.001088 0.005311 64.467735 0.005311 464.317810
[R_Toe2_02]
9 342.234741 -0.000954 0.000238 0.001187 -72.979172 0.001187 342.234741
10 342.234741 -0.000954 0.000238 -0.002342 -75.272400 -0.002342 342.234741
[R_Toe2_03]
9 420.210846 0.000715 -0.000268 0.046434 87.103355 0.046434 420.210846
10 420.210846 0.000715 -0.000268 -179.981750 86.009583 -179.985245 420.210846
[R_Toe3_02]
9 329.270355 -0.000477 -0.000954 0.001178 -80.189087 0.001178 329.270355
10 329.270355 -0.000477 -0.000954 0.001177 -81.788933 0.001177 329.270355
[R_Toe3_03]
9 439.137939 0.000238 0.001431 -179.995377 79.657860 -179.991867 439.137939
10 439.137939 0.000238 0.001431 -179.997925 72.798874 -179.994400 439.137939
[Rear_Leg02]
9 1162.777710 -0.029802 0.005960 9.513046 -9.925146 -136.063309 1162.777710
10 1162.777710 -0.029802 0.005960 11.550846 -10.959156 -134.225479 1162.777710
[Rear_Leg03]
9 607.192505 -0.013351 -0.073195 0.010181 -0.005702 74.858749 607.192505
10 607.192505 -0.013351 -0.073195 0.010147 -0.005762 75.532906 607.192505
[Rear_Leg04]
9 995.874512 -0.020504 -0.011921 -0.045663 -0.016831 82.950020 995.874573
10 995.874512 -0.020504 -0.011921 -0.045941 -0.016055 84.892120 995.874573
[Rear_Foot]
9 3096.176270 -0.067472 -0.041425 -85.160156 76.228012 74.623726 3096.176270
10 3096.176270 -0.067472 -0.041425 -89.302643 74.121246 69.372864 3096.176270
[planeAlignerCenter]
9 -5.135550 68.689781 -554.231995 12.240773 -0.001473 179.998184 558.495972
10 0.317206 68.809280 -554.804688 12.240769 -0.001473 179.998184 559.055481
[Rear_Toe1_01]
9 0.653352 83.966492 -371.173737 0.334006 28.088253 90.691467 380.553192
10 0.653352 83.966492 -371.173737 0.208543 28.132391 90.390999 380.553192
[Rear_Toe2_01]
9 178.200760 -294.826019 -362.060547 -6.977251 21.368711 -64.108223 499.765686
10 178.200760 -294.826019 -362.060547 -6.641517 21.474487 -63.709156 499.765686
[Rear_Toe3_01]
9 -153.359680 -308.780914 -362.060852 4.165932 21.308973 -114.532959 499.952881
10 -153.359680 -308.780914 -362.060852 4.199694 21.294062 -114.241867 499.952881
[planeLockWeightCenter]
9 -0.000092 0.000305 0.000000 -0.011814 -0.004373 -0.000015 0.000319
10 -0.000091 0.000305 0.000000 -0.011814 -0.004373 -0.000015 0.000318
[Rear_Toe1_02]
9 379.707825 0.194073 0.000477 -0.000767 -33.624729 0.000838 379.707855
10 379.707825 0.194073 0.000477 -0.000767 -33.624729 0.000838 379.707855
[Rear_Toe1_03]
9 500.129700 0.165701 0.000119 -0.004292 63.371834 -0.000699 500.129761
10 500.129700 0.165701 0.000119 -0.004278 63.205463 -0.000683 500.129761
[Rear_Toe2_02]
9 340.494507 0.000238 -0.000954 0.001177 -81.077690 0.001177 340.494507
10 340.494507 0.000238 -0.000954 0.001177 -80.856644 0.001177 340.494507
[Rear_Toe2_03]
9 433.103577 0.000000 0.000238 0.000000 89.814430 0.000004 433.103546
10 433.103577 0.000000 0.000238 0.208839 89.355324 0.208839 433.103546
[Rear_Toe3_02]
9 340.494141 -0.000358 -0.000477 0.001179 -78.799706 0.001179 340.494171
10 340.494141 -0.000358 -0.000477 0.001179 -79.194489 0.001179 340.494171
[Rear_Toe3_03]
9 433.103577 0.001431 -0.000238 -0.015400 85.173836 -0.011901 433.103546
10 433.103577 0.001431 -0.000238 -0.016853 85.638161 -0.013353 433.103546
[Back_Bone]
9 1312.175781 -701.934692 0.000954 0.256995 0.472372 -85.143433 1488.125488
10 1312.175781 -701.934692 0.000954 -0.009131 0.556130 -85.060066 1488.125488
[Head]
9 1406.159424 809.709290 0.001431 -0.597773 -0.391932 13.278687 1622.625488
10 1406.159424 809.709290 0.001431 -0.712309 -0.183040 14.322010 1622.625488
[Motor_Bone]
9 1158.364380 -417.834747 0.000477 -0.667945 0.093768 -105.896309 1231.419434
10 1158.364380 -417.834747 0.000477 -0.739515 0.095990 -105.893898 1231.419434
[Ping_Mechanism]
9 1232.792603 -440.894165 15.397592 0.000103 -0.000053 82.120995 1309.351929
10 1220.094116 -435.617645 3.827831 0.000103 -0.000053 82.120995 1295.533447
[BN_LookIK]
9 193.241119 1380.371704 -0.002861 0.000000 89.965736 -31.038179 1393.832153
10 193.241119 1380.371704 -0.002861 0.000000 89.965736 -31.038179 1393.832153
[bottomMouth]
9 -435.092926 615.759399 -0.000954 -0.000022 0.000016 73.527184 753.966492
10 -435.092926 615.759399 -0.000954 -0.000022 0.000016 73.527184 753.966492
[L_Mouth01]
9 554.440979 7.658243 838.222046 150.204178 23.759130 109.605339 1005.027161
10 554.440979 7.658243 838.222046 150.204178 23.759130 109.605339 1005.027161
[L_mouthFront]
9 551.629089 934.514771 339.150421 0.000081 2.804060 79.119301 1136.941284
10 551.629089 934.514771 339.150421 0.000081 2.804060 79.119301 1136.941284
[mouthGun]
9 55.332661 1627.420898 0.000000 0.000023 0.000009 -11.038128 1628.361328
10 55.332661 1627.420898 0.000000 0.000023 0.000009 -11.038128 1628.361328
[R_Mouth01]
9 554.442383 7.659197 -838.223938 29.795891 -23.759109 109.605331 1005.029541
10 554.442383 7.659197 -838.223938 29.795891 -23.759109 109.605331 1005.029541
[R_mouthFront]
9 551.629089 934.514282 -339.151367 0.000029 -2.803930 79.119133 1136.941162
10 551.629089 934.514282 -339.151367 0.000029 -2.803930 79.119133 1136.941162
[TopMouth]
9 461.269867 -56.106091 -0.008583 -0.000059 -0.000268 92.025169 464.669525
10 461.269867 -56.106091 -0.008583 -0.000059 -0.000268 92.025169 464.669525
[weapon_bone]
9 -987.239868 1448.372803 0.001431 0.000000 89.965736 -31.038221 1752.833740
10 -987.239868 1448.372803 0.001431 0.000000 89.965736 -31.038221 1752.833740
